<mxfile host="Electron" modified="2024-04-13T22:10:33.010Z" agent="Mozilla/5.0 (Windows NT 10.0; Win64; x64) AppleWebKit/537.36 (KHTML, like Gecko) draw.io/24.1.0 Chrome/120.0.6099.109 Electron/28.1.0 Safari/537.36" etag="EfW_8Gb2MPa1bHO-zpjh" version="24.1.0" type="device">
  <diagram name="Strona-1" id="qPf3AN_Ml3OezSIysqD3">
    <mxGraphModel dx="934" dy="658" grid="1" gridSize="10" guides="1" tooltips="1" connect="1" arrows="1" fold="1" page="1" pageScale="1" pageWidth="827" pageHeight="1169" math="0" shadow="0">
      <root>
        <mxCell id="0" />
        <mxCell id="1" parent="0" />
        <mxCell id="I0NIPnPHJ1SzyM1SRgCm-4" value="" style="group" vertex="1" connectable="0" parent="1">
          <mxGeometry x="120" y="140" width="120" height="130" as="geometry" />
        </mxCell>
        <mxCell id="I0NIPnPHJ1SzyM1SRgCm-2" value="GitHub" style="rounded=1;whiteSpace=wrap;html=1;align=center;fillColor=#f5f5f5;fontColor=#333333;strokeColor=#666666;" vertex="1" parent="I0NIPnPHJ1SzyM1SRgCm-4">
          <mxGeometry width="120" height="50" as="geometry" />
        </mxCell>
        <mxCell id="I0NIPnPHJ1SzyM1SRgCm-3" value="Repo with Django" style="rounded=0;whiteSpace=wrap;html=1;" vertex="1" parent="I0NIPnPHJ1SzyM1SRgCm-4">
          <mxGeometry y="40" width="120" height="90" as="geometry" />
        </mxCell>
        <mxCell id="I0NIPnPHJ1SzyM1SRgCm-6" value="" style="group;" vertex="1" connectable="0" parent="1">
          <mxGeometry x="360" y="80" width="360" height="450" as="geometry" />
        </mxCell>
        <mxCell id="I0NIPnPHJ1SzyM1SRgCm-7" value="Google Cloud" style="rounded=1;whiteSpace=wrap;html=1;align=center;fillColor=#f5f5f5;fontColor=#333333;strokeColor=#666666;" vertex="1" parent="I0NIPnPHJ1SzyM1SRgCm-6">
          <mxGeometry width="360" height="50" as="geometry" />
        </mxCell>
        <mxCell id="I0NIPnPHJ1SzyM1SRgCm-8" value="" style="rounded=0;whiteSpace=wrap;html=1;" vertex="1" parent="I0NIPnPHJ1SzyM1SRgCm-6">
          <mxGeometry y="40" width="360" height="360" as="geometry" />
        </mxCell>
        <mxCell id="I0NIPnPHJ1SzyM1SRgCm-17" value="" style="group" vertex="1" connectable="0" parent="I0NIPnPHJ1SzyM1SRgCm-6">
          <mxGeometry x="-120" y="60" width="440" height="148.75" as="geometry" />
        </mxCell>
        <mxCell id="I0NIPnPHJ1SzyM1SRgCm-12" value="" style="curved=1;endArrow=classic;html=1;rounded=0;entryX=0.004;entryY=0.153;entryDx=0;entryDy=0;entryPerimeter=0;movable=1;resizable=1;rotatable=1;deletable=1;editable=1;locked=0;connectable=1;" edge="1" parent="I0NIPnPHJ1SzyM1SRgCm-17" source="I0NIPnPHJ1SzyM1SRgCm-11" target="I0NIPnPHJ1SzyM1SRgCm-11">
          <mxGeometry width="50" height="50" relative="1" as="geometry">
            <mxPoint x="180" y="140" as="sourcePoint" />
            <mxPoint x="230" y="105" as="targetPoint" />
            <Array as="points">
              <mxPoint x="160" y="120" />
              <mxPoint x="120" y="120" />
              <mxPoint x="20" y="120" />
              <mxPoint x="10" y="110" />
              <mxPoint y="70" />
              <mxPoint x="20" y="45" />
            </Array>
          </mxGeometry>
        </mxCell>
        <mxCell id="I0NIPnPHJ1SzyM1SRgCm-11" value="" style="rounded=0;whiteSpace=wrap;html=1;movable=1;resizable=1;rotatable=1;deletable=1;editable=1;locked=0;connectable=1;" vertex="1" parent="I0NIPnPHJ1SzyM1SRgCm-17">
          <mxGeometry x="160" y="28" width="280" height="112" as="geometry" />
        </mxCell>
        <mxCell id="I0NIPnPHJ1SzyM1SRgCm-10" value="Computer Engine" style="rounded=1;whiteSpace=wrap;html=1;align=center;fillColor=#dae8fc;strokeColor=#6c8ebf;movable=1;resizable=1;rotatable=1;deletable=1;editable=1;locked=0;connectable=1;" vertex="1" parent="I0NIPnPHJ1SzyM1SRgCm-17">
          <mxGeometry x="160" width="280" height="35" as="geometry" />
        </mxCell>
        <mxCell id="I0NIPnPHJ1SzyM1SRgCm-9" value="" style="group" vertex="1" connectable="0" parent="I0NIPnPHJ1SzyM1SRgCm-17">
          <mxGeometry x="160" width="280" height="148.75" as="geometry" />
        </mxCell>
        <mxCell id="I0NIPnPHJ1SzyM1SRgCm-15" value="Django&lt;div&gt;server&lt;/div&gt;" style="ellipse;whiteSpace=wrap;html=1;aspect=fixed;" vertex="1" parent="I0NIPnPHJ1SzyM1SRgCm-9">
          <mxGeometry x="21" y="54.71875" width="65" height="65" as="geometry" />
        </mxCell>
        <mxCell id="I0NIPnPHJ1SzyM1SRgCm-33" value="" style="endArrow=classic;html=1;rounded=0;dashed=1;dashPattern=8 8;" edge="1" parent="I0NIPnPHJ1SzyM1SRgCm-17">
          <mxGeometry width="50" height="50" relative="1" as="geometry">
            <mxPoint x="60" y="310" as="sourcePoint" />
            <mxPoint x="60" y="120" as="targetPoint" />
          </mxGeometry>
        </mxCell>
        <mxCell id="I0NIPnPHJ1SzyM1SRgCm-18" value="" style="group" vertex="1" connectable="0" parent="I0NIPnPHJ1SzyM1SRgCm-6">
          <mxGeometry x="-120" y="220" width="440" height="170" as="geometry" />
        </mxCell>
        <mxCell id="I0NIPnPHJ1SzyM1SRgCm-20" value="" style="rounded=0;whiteSpace=wrap;html=1;movable=1;resizable=1;rotatable=1;deletable=1;editable=1;locked=0;connectable=1;" vertex="1" parent="I0NIPnPHJ1SzyM1SRgCm-18">
          <mxGeometry x="160" y="31.999999999999996" width="280" height="127.99999999999999" as="geometry" />
        </mxCell>
        <mxCell id="I0NIPnPHJ1SzyM1SRgCm-21" value="PostgreSQL" style="rounded=1;whiteSpace=wrap;html=1;align=center;fillColor=#dae8fc;strokeColor=#6c8ebf;movable=1;resizable=1;rotatable=1;deletable=1;editable=1;locked=0;connectable=1;" vertex="1" parent="I0NIPnPHJ1SzyM1SRgCm-18">
          <mxGeometry x="160" width="280" height="40" as="geometry" />
        </mxCell>
        <mxCell id="I0NIPnPHJ1SzyM1SRgCm-41" value="Table&lt;div&gt;Users&lt;/div&gt;" style="ellipse;whiteSpace=wrap;html=1;aspect=fixed;" vertex="1" parent="I0NIPnPHJ1SzyM1SRgCm-18">
          <mxGeometry x="174" y="69.99874999999997" width="65" height="65" as="geometry" />
        </mxCell>
        <mxCell id="I0NIPnPHJ1SzyM1SRgCm-42" value="Table&lt;div&gt;Shared&lt;/div&gt;&lt;div&gt;Notes&lt;/div&gt;" style="ellipse;whiteSpace=wrap;html=1;aspect=fixed;" vertex="1" parent="I0NIPnPHJ1SzyM1SRgCm-18">
          <mxGeometry x="267.5" y="69.99874999999997" width="65" height="65" as="geometry" />
        </mxCell>
        <mxCell id="I0NIPnPHJ1SzyM1SRgCm-43" value="Table&lt;div&gt;Notes&lt;/div&gt;" style="ellipse;whiteSpace=wrap;html=1;aspect=fixed;" vertex="1" parent="I0NIPnPHJ1SzyM1SRgCm-18">
          <mxGeometry x="360" y="69.99874999999997" width="65" height="65" as="geometry" />
        </mxCell>
        <mxCell id="I0NIPnPHJ1SzyM1SRgCm-30" value="" style="group" vertex="1" connectable="0" parent="1">
          <mxGeometry x="120" y="320" width="120" height="160" as="geometry" />
        </mxCell>
        <mxCell id="I0NIPnPHJ1SzyM1SRgCm-25" value="" style="rounded=1;whiteSpace=wrap;html=1;" vertex="1" parent="I0NIPnPHJ1SzyM1SRgCm-30">
          <mxGeometry y="40" width="120" height="120" as="geometry" />
        </mxCell>
        <mxCell id="I0NIPnPHJ1SzyM1SRgCm-26" value="Admin computer" style="text;html=1;align=center;verticalAlign=middle;whiteSpace=wrap;rounded=0;" vertex="1" parent="I0NIPnPHJ1SzyM1SRgCm-30">
          <mxGeometry y="20" width="120" height="20" as="geometry" />
        </mxCell>
        <mxCell id="I0NIPnPHJ1SzyM1SRgCm-35" value="building cloud&lt;div&gt;by running&lt;/div&gt;&lt;div&gt;terraform script&lt;/div&gt;" style="text;html=1;align=center;verticalAlign=middle;whiteSpace=wrap;rounded=0;" vertex="1" parent="I0NIPnPHJ1SzyM1SRgCm-30">
          <mxGeometry y="100" width="120" height="60" as="geometry" />
        </mxCell>
        <mxCell id="I0NIPnPHJ1SzyM1SRgCm-36" value="cloning repo&lt;div&gt;with terraform script&lt;/div&gt;" style="text;html=1;align=center;verticalAlign=middle;whiteSpace=wrap;rounded=0;" vertex="1" parent="I0NIPnPHJ1SzyM1SRgCm-30">
          <mxGeometry y="40" width="120" height="60" as="geometry" />
        </mxCell>
        <mxCell id="I0NIPnPHJ1SzyM1SRgCm-31" value="" style="endArrow=classic;html=1;rounded=0;exitX=1;exitY=0.75;exitDx=0;exitDy=0;dashed=1;dashPattern=8 8;" edge="1" parent="1">
          <mxGeometry width="50" height="50" relative="1" as="geometry">
            <mxPoint x="240" y="450" as="sourcePoint" />
            <mxPoint x="360" y="450" as="targetPoint" />
          </mxGeometry>
        </mxCell>
        <mxCell id="I0NIPnPHJ1SzyM1SRgCm-40" value="" style="endArrow=classic;html=1;rounded=0;exitX=0;exitY=0.5;exitDx=0;exitDy=0;entryX=0;entryY=0;entryDx=0;entryDy=0;dashed=1;dashPattern=8 8;" edge="1" parent="1" source="I0NIPnPHJ1SzyM1SRgCm-3" target="I0NIPnPHJ1SzyM1SRgCm-35">
          <mxGeometry width="50" height="50" relative="1" as="geometry">
            <mxPoint x="150" y="360" as="sourcePoint" />
            <mxPoint x="200" y="310" as="targetPoint" />
            <Array as="points">
              <mxPoint x="80" y="225" />
              <mxPoint x="80" y="420" />
            </Array>
          </mxGeometry>
        </mxCell>
      </root>
    </mxGraphModel>
  </diagram>
</mxfile>
